<svg xmlns="http://www.w3.org/2000/svg" viewBox="0 0 760 420" font-family="ui-monospace, SFMono-Regular, Menlo, monospace" style="width:100%;height:auto;max-width:760px;display:block">
  <defs>
    <pattern id="braille1" width="14" height="20" patternUnits="userSpaceOnUse">
      <circle cx="4" cy="4" r="1" fill="#385a7b" opacity="0.55"/><circle cx="10" cy="4" r="1" fill="#385a7b" opacity="0.55"/>
      <circle cx="4" cy="10" r="1" fill="#385a7b" opacity="0.55"/><circle cx="10" cy="10" r="1" fill="#385a7b" opacity="0.55"/>
      <circle cx="4" cy="16" r="1" fill="#385a7b" opacity="0.55"/><circle cx="10" cy="16" r="1" fill="#385a7b" opacity="0.55"/>
    </pattern>
  </defs>
  <rect width="760" height="420" fill="#12395f"/>
  <rect width="760" height="420" fill="url(#braille1)"/>
  <rect x="0.5" y="0.5" width="759" height="419" fill="none" stroke="#68839d"/>
  <text x="20" y="24" fill="#e8f1fa" font-size="10" letter-spacing="2">FIG. 1 · NINE LEARNINGS AGAINST OUR OWN DOCUMENTS</text>
  <text x="740" y="24" fill="#a7c0d9" font-size="10" letter-spacing="2" text-anchor="end">AUDIT 2026-09-06 · CHANGES 2026-09-07</text>
  <line x1="20" y1="36" x2="740" y2="36" stroke="#68839d"/>

  <!-- column heads -->
  <g fill="#a7c0d9" font-size="10" text-anchor="middle">
    <text x="470" y="62">we had</text>
    <text x="560" y="62">was missing</text>
    <text x="650" y="62">changed</text>
    <text x="650" y="74" fill="#6f8fb0" font-size="9">this week</text>
  </g>
  <line x1="20" y1="82" x2="740" y2="82" stroke="#385a7b" opacity="0.6"/>

  <!-- rows: label, had, missing, changed (1 full, 0.5 partial, 0 none) -->
  <g fill="#e8f1fa" font-size="11">
    <text x="20" y="104">1 verification is the bottleneck</text>
    <text x="20" y="136">2 the harness beats the model</text>
    <text x="20" y="168">3 the harness improves itself</text>
    <text x="20" y="200">4 the two clocks</text>
    <text x="20" y="232">5 apprenticeship</text>
    <text x="20" y="264">6 governance and dependencies</text>
    <text x="20" y="296">7 AI spend is governance</text>
    <text x="20" y="328">8 legacy modernization</text>
    <text x="20" y="360">9 the expectation gap</text>
  </g>
  <!-- had (grey filled = yes, ring = partial, faint = no) -->
  <g stroke="#c3d7ea" stroke-width="1.5">
    <circle cx="470" cy="100" r="7" fill="#c3d7ea"/>
    <circle cx="470" cy="132" r="7" fill="#c3d7ea"/>
    <circle cx="470" cy="164" r="7" fill="none"/>
    <circle cx="470" cy="196" r="7" fill="none"/>
    <circle cx="470" cy="228" r="7" fill="none"/>
    <circle cx="470" cy="260" r="7" fill="#c3d7ea"/>
    <circle cx="470" cy="292" r="7" fill="none"/>
    <circle cx="470" cy="324" r="7" fill="none"/>
    <circle cx="470" cy="356" r="7" fill="none"/>
  </g>
  <!-- missing -->
  <g stroke="#c3d7ea" stroke-width="1.5">
    <circle cx="560" cy="100" r="7" fill="#c3d7ea"/>
    <circle cx="560" cy="132" r="7" fill="none"/>
    <circle cx="560" cy="164" r="7" fill="#c3d7ea"/>
    <circle cx="560" cy="196" r="7" fill="#c3d7ea"/>
    <circle cx="560" cy="228" r="7" fill="#c3d7ea"/>
    <circle cx="560" cy="260" r="7" fill="#c3d7ea"/>
    <circle cx="560" cy="292" r="7" fill="#c3d7ea"/>
    <circle cx="560" cy="324" r="7" fill="#c3d7ea"/>
    <circle cx="560" cy="356" r="7" fill="#c3d7ea"/>
  </g>
  <!-- changed this week (amber = shipped, ring = open) -->
  <g stroke="#e8c56a" stroke-width="1.5">
    <circle cx="650" cy="100" r="7" fill="none"/>
    <circle cx="650" cy="132" r="7" fill="#e8c56a"/>
    <circle cx="650" cy="164" r="7" fill="#e8c56a"/>
    <circle cx="650" cy="196" r="7" fill="#e8c56a"/>
    <circle cx="650" cy="228" r="7" fill="none"/>
    <circle cx="650" cy="260" r="7" fill="#e8c56a"/>
    <circle cx="650" cy="292" r="7" fill="none"/>
    <circle cx="650" cy="324" r="7" fill="#e8c56a"/>
    <circle cx="650" cy="356" r="7" fill="none"/>
  </g>
  <!-- row 1 changed: half (prober shipped, review sample open) -->
  <path d="M 650 93 A 7 7 0 0 1 650 107 Z" fill="#e8c56a"/>

  <!-- legend -->
  <g font-size="9" fill="#6f8fb0">
    <circle cx="26" cy="394" r="4" fill="#c3d7ea"/><text x="36" y="397">in place</text>
    <circle cx="96" cy="394" r="4" fill="none" stroke="#c3d7ea"/><text x="106" y="397">absent</text>
    <circle cx="166" cy="394" r="4" fill="#e8c56a"/><text x="176" y="397">shipped</text>
    <circle cx="236" cy="394" r="4" fill="none" stroke="#e8c56a"/><text x="246" y="397">open, named</text>
    <path d="M 322 390 A 4 4 0 0 1 322 398 Z" fill="#e8c56a"/><circle cx="322" cy="394" r="4" fill="none" stroke="#e8c56a"/><text x="332" y="397">half shipped</text>
  </g>
</svg>
